<svg width="15" height="19" viewBox="0 0 15 19" fill="none" xmlns="http://www.w3.org/2000/svg">
<path d="M14.9091 6.17438C14.8646 6.07263 14.8024 5.97961 14.7253 5.89969L9.10031 0.274687C9.02039 0.197608 8.92737 0.135386 8.82562 0.0909374C8.7975 0.0778124 8.7675 0.0703124 8.7375 0.0599999C8.65906 0.0333058 8.57739 0.0172258 8.49469 0.0121875C8.475 0.0103125 8.45719 0 8.4375 0H1.875C0.840937 0 0 0.840937 0 1.875V16.875C0 17.9091 0.840937 18.75 1.875 18.75H13.125C14.1591 18.75 15 17.9091 15 16.875V6.5625C15 6.54281 14.9897 6.525 14.9878 6.50437C14.9832 6.42161 14.9671 6.33989 14.94 6.26156C14.9306 6.23156 14.9222 6.2025 14.9091 6.17438ZM11.7994 5.625H9.375V3.20062L11.7994 5.625ZM1.875 16.875V1.875H7.5V6.5625C7.5 6.81114 7.59877 7.0496 7.77459 7.22541C7.9504 7.40123 8.18886 7.5 8.4375 7.5H13.125L13.1269 16.875H1.875Z" fill="white"/>
<path d="M3.75 9.375H11.25V11.25H3.75V9.375ZM3.75 13.125H11.25V15H3.75V13.125ZM3.75 5.625H5.625V7.5H3.75V5.625Z" fill="white"/>
</svg>
