<svg width="44" height="26" viewBox="0 0 44 26" fill="none" xmlns="http://www.w3.org/2000/svg">
<path d="M44 24.8442C43.3596 25.0864 42.6527 25.0859 42.0127 24.8427C41.3727 24.5996 40.8438 24.1306 40.5258 23.5242L34.2008 14.7774L33.2842 13.5546L25.9453 23.5352C25.6465 24.1161 25.1463 24.5683 24.5383 24.8072C23.9302 25.0461 23.256 25.0553 22.6417 24.8332L32.098 12.1466L23.3017 0.686403C23.9342 0.458474 24.6259 0.455452 25.2603 0.677847C25.8948 0.900241 26.4332 1.33447 26.785 1.9074L33.341 10.7624L39.9337 1.94407C40.2348 1.37351 40.7352 0.933515 41.3395 0.707722C41.9439 0.48193 42.6102 0.486087 43.2117 0.719404L39.798 5.24957L35.1743 11.2684C35.0459 11.3829 34.9432 11.5233 34.8728 11.6804C34.8025 11.8374 34.7661 12.0075 34.7661 12.1796C34.7661 12.3516 34.8025 12.5218 34.8728 12.6788C34.9432 12.8358 35.0459 12.9762 35.1743 13.0907L43.9817 24.8461L44 24.8442ZM0.00368866 11.9889L0.773688 8.18474C2.88935 0.662571 11.5133 -2.46693 17.446 2.18974C20.9202 4.91957 21.7873 8.78424 21.6168 13.1402H2.04602C1.72885 20.9191 7.34252 25.6161 14.52 23.2162C15.6836 22.7974 16.725 22.0965 17.5512 21.1763C18.3773 20.2561 18.9623 19.1454 19.2537 17.9436C19.6332 16.7226 20.2583 16.5136 21.406 16.8656C21.2148 18.3549 20.6883 19.7815 19.8661 21.0381C19.044 22.2946 17.9476 23.3484 16.6595 24.1201C14.5318 25.2839 12.0905 25.7452 9.68483 25.438C7.27912 25.1308 5.03215 24.0708 3.26519 22.4096C1.51807 20.4431 0.462161 17.9591 0.258522 15.3366C0.258522 14.9057 0.111855 14.5024 0.0128553 14.1156C0.00393071 13.4073 -0.000347155 12.699 2.19932e-05 11.9907L0.00368866 11.9889ZM2.06985 11.4646H19.7688C19.6588 5.82524 16.1003 1.8249 11.3538 1.78824C6.07019 1.7149 2.28985 5.62724 2.05702 11.4389L2.06985 11.4646Z" fill="#997A7A"/>
</svg>
