<svg width="11" height="8" viewBox="0 0 11 8" fill="none" xmlns="http://www.w3.org/2000/svg">
<path d="M5.50002 2.18817C5.06565 2.19104 4.64989 2.36486 4.34273 2.67202C4.03558 2.97917 3.86175 3.39494 3.85889 3.82931C3.85889 4.72756 4.60178 5.47045 5.50002 5.47045C6.39773 5.47045 7.14116 4.72756 7.14116 3.82931C7.14116 2.93161 6.39773 2.18817 5.50002 2.18817Z" fill="white"/>
<path d="M5.5 0C1.3244 0 0.0694749 3.6198 0.0579869 3.65645L0 3.82932L0.0574399 4.00219C0.0694749 4.03884 1.3244 7.65864 5.5 7.65864C9.6756 7.65864 10.9305 4.03884 10.942 4.00219L11 3.82932L10.9426 3.65645C10.9305 3.6198 9.6756 0 5.5 0ZM5.5 6.56455C2.57276 6.56455 1.43873 4.46061 1.16411 3.82932C1.43982 3.19584 2.5744 1.09409 5.5 1.09409C8.42724 1.09409 9.56127 3.19803 9.83589 3.82932C9.56017 4.4628 8.4256 6.56455 5.5 6.56455Z" fill="white"/>
</svg>
