<svg width="44" height="44" viewBox="0 0 44 44" fill="none" xmlns="http://www.w3.org/2000/svg">
<path d="M0 0H44V44H0V0ZM40.3944 33.506C40.0742 31.4991 38.7664 29.8124 34.8896 28.2382C33.5402 27.6051 32.0418 27.1676 31.592 26.1507C31.4258 25.5444 31.4013 25.2169 31.5089 24.8576C31.7851 23.6744 33.1882 23.32 34.2882 23.6476C35.0044 23.8676 35.6644 24.4176 36.0776 25.3C37.972 24.0607 37.972 24.0607 39.2944 23.2369C38.7982 22.4693 38.5513 22.1344 38.2213 21.8044C37.0651 20.5138 35.5251 19.8538 33.0244 19.91L31.7338 20.0738C30.4944 20.3769 29.3113 21.0393 28.5976 21.9169C26.5076 24.2831 27.1113 28.4069 29.6413 30.1156C32.142 31.9856 35.8038 32.3962 36.2707 34.1562C36.7107 36.3024 34.6769 36.9893 32.6651 36.7424C31.1813 36.41 30.3551 35.6693 29.4482 34.2931L26.0944 36.2193C26.4782 37.0969 26.9182 37.4831 27.5782 38.2531C30.7682 41.47 38.7444 41.3062 40.1744 36.41C40.2258 36.2462 40.6144 35.1193 40.3113 33.3862L40.3944 33.506ZM23.9262 20.2229H19.8049C19.8049 23.7747 19.7878 27.3069 19.7878 30.866C19.7878 33.1247 19.9027 35.1976 19.5336 35.8356C18.9298 37.0993 17.3678 36.938 16.6613 36.7131C15.9353 36.3562 15.5662 35.86 15.1384 35.1462C15.0236 34.9556 14.938 34.7893 14.9062 34.7893L11.5622 36.8524C12.122 38.0087 12.9384 39.0011 13.992 39.6318C15.5589 40.568 17.6636 40.8711 19.8684 40.3773C21.3058 39.9618 22.5451 39.1087 23.188 37.7887C24.1267 36.0849 23.9262 33.9924 23.9189 31.6556C23.9384 27.8887 23.9189 24.1193 23.9189 20.3256L23.9262 20.2229Z" fill="#997A7A"/>
</svg>
