<svg width="43" height="44" viewBox="0 0 43 44" fill="none" xmlns="http://www.w3.org/2000/svg">
<path d="M17.2289 32.9953L32.3908 24.3417L25.5027 20.3758L10.351 29.1004L17.2289 32.9953ZM33.0881 15.2953L26.1927 11.3294V19.1814L33.0895 23.1487L33.0881 15.2953ZM33.7766 6.16913L26.8827 10.135L33.7766 14.1009L40.669 10.1336L33.7766 6.16913ZM12.5441 26.2449L16.5448 23.9416V6.64312L9.64796 10.6119V27.9104L12.5441 26.2449ZM8.958 1.4843L2.06411 5.45162L8.958 9.41894L15.8475 5.45162L8.958 1.4843ZM1.37269 6.64457V33.391L16.5404 42.12V34.1897L8.60866 29.702C8.58257 29.6831 8.56228 29.6629 8.53474 29.6455C8.51444 29.6266 8.49125 29.6121 8.47096 29.5962L8.46951 29.5918C8.44777 29.5701 8.42892 29.5469 8.41298 29.5208L8.41153 29.5194C8.39124 29.5005 8.37529 29.4788 8.3608 29.4541L8.35935 29.4527H8.355C8.3434 29.4309 8.33181 29.4019 8.32021 29.373L8.31876 29.3672C8.30861 29.3454 8.29702 29.3208 8.28687 29.2932L8.28542 29.2889C8.27962 29.2599 8.27382 29.2237 8.27093 29.1874V29.1845C8.26658 29.1628 8.26223 29.1367 8.25933 29.1106V29.1091V10.6148L4.26302 8.31006L1.37269 6.64457ZM33.0895 33.3896V25.5303L17.9218 34.1897V42.1185L33.0895 33.3896ZM41.3575 19.1814V11.3294L34.4636 15.2967V23.1487L41.3575 19.1814ZM42.7143 9.95526C42.7302 10.0103 42.7404 10.0727 42.7404 10.1379V19.5786C42.7404 19.8337 42.6027 20.0555 42.3968 20.1743L42.3939 20.1758L34.468 24.7403V33.7867C34.468 34.0404 34.3303 34.2622 34.1259 34.3825L34.123 34.3839L17.5754 43.9072C17.5406 43.9261 17.5 43.9435 17.4579 43.9551L17.4536 43.9565L17.4101 43.9754C17.3579 43.9913 17.297 44 17.2347 44C17.1724 44 17.1115 43.9913 17.0535 43.9739L17.0579 43.9754C17.0361 43.9696 17.0187 43.9623 17.0013 43.9522L17.0028 43.9536C16.9579 43.9377 16.9202 43.9232 16.8839 43.9058L16.8897 43.9087L0.346434 34.3854C0.137704 34.2636 0 34.0418 0 33.7882V5.45307C0 5.38929 0.0101467 5.32696 0.0275408 5.26898L0.0260913 5.27333C0.0318893 5.25159 0.0449349 5.23709 0.0521825 5.21535C0.0652281 5.17332 0.0797232 5.13853 0.0956679 5.10519L0.0942185 5.10954C0.105815 5.08635 0.12031 5.06605 0.136254 5.04866L0.197134 4.96604L0.265261 4.91675C0.291352 4.89501 0.314545 4.87327 0.340636 4.85442H0.342085L8.61591 0.0927688C8.71448 0.0347883 8.83334 0 8.95944 0C9.08555 0 9.20441 0.0347883 9.30588 0.0942184L9.30298 0.0927688L17.5797 4.85442C17.6072 4.87327 17.6304 4.89356 17.6536 4.9153L17.7232 4.96459C17.7464 4.99068 17.7594 5.01967 17.7841 5.04721C17.8015 5.0646 17.816 5.0849 17.829 5.10664L17.8305 5.10809C17.845 5.13708 17.8595 5.17187 17.8725 5.2081L17.874 5.2139L17.8971 5.27188C17.9131 5.32262 17.9232 5.38205 17.9232 5.44293C17.9232 5.44582 17.9232 5.44872 17.9232 5.45162V23.1473L24.8171 19.18V10.1336C24.8171 10.1321 24.8171 10.1307 24.8171 10.1307C24.8171 10.0683 24.8258 10.0074 24.8418 9.94946L24.8403 9.95381C24.8461 9.93497 24.8592 9.91758 24.8635 9.89583C24.878 9.85235 24.8925 9.81756 24.9099 9.78277L24.907 9.78857C24.92 9.76683 24.9403 9.75233 24.9534 9.72769C24.9751 9.70015 24.9925 9.67261 25.0143 9.64942C25.0346 9.63057 25.0563 9.61318 25.0795 9.59868L25.0809 9.59723C25.107 9.57839 25.1288 9.5552 25.1563 9.53925H25.1578L33.4316 4.77615C33.5302 4.71817 33.649 4.68338 33.7751 4.68338C33.9012 4.68338 34.0201 4.71817 34.1216 4.7776L34.1187 4.77615L42.3925 9.53925C42.4215 9.5581 42.4418 9.57839 42.4693 9.59578C42.491 9.61463 42.5157 9.62912 42.536 9.64652C42.5592 9.67261 42.5766 9.7016 42.5983 9.72769C42.6143 9.74508 42.6287 9.76538 42.6418 9.78567L42.6432 9.78712C42.6606 9.81901 42.6751 9.85525 42.6867 9.89293L42.6882 9.89728C42.6998 9.91468 42.7085 9.93352 42.7157 9.95381L42.7143 9.95526Z" fill="#997A7A"/>
</svg>
