<svg width="19" height="18" viewBox="0 0 19 18" fill="none" xmlns="http://www.w3.org/2000/svg">
<path d="M2.188 4.376C3.3964 4.376 4.376 3.3964 4.376 2.188C4.376 0.979601 3.3964 0 2.188 0C0.979601 0 0 0.979601 0 2.188C0 3.3964 0.979601 4.376 2.188 4.376Z" fill="white"/>
<path d="M6.44193 5.67601V17.815H10.2109V11.812C10.2109 10.228 10.5089 8.69401 12.4729 8.69401C14.4099 8.69401 14.4339 10.505 14.4339 11.912V17.816H18.2049V11.159C18.2049 7.88901 17.5009 5.37601 13.6789 5.37601C11.8439 5.37601 10.6139 6.38301 10.1109 7.33601H10.0599V5.67601H6.44193ZM0.299927 5.67601H4.07493V17.815H0.299927V5.67601Z" fill="white"/>
</svg>
