<svg width="30" height="30" viewBox="0 0 30 30" fill="none" xmlns="http://www.w3.org/2000/svg">
<path fill-rule="evenodd" clip-rule="evenodd" d="M28.7769 10.8127L15.0388 0L1.22503 10.8127C0.548239 10.8127 0 11.3776 0 12.0685V28.7442C0 29.4352 0.548239 30 1.22503 30H28.775C29.4518 30 30 29.4352 30 28.7442V12.0685C30.0019 11.3757 29.4536 10.8127 28.7769 10.8127ZM26.3589 28.1812L21.0164 20.7537L15.0388 25.6903L9.11399 20.782L3.6732 28.1831H1.79217L7.4844 19.0988L1.89804 13.3545L1.92451 12.0949L15.0406 2.25179L28.1851 12.157V13.3545L22.6347 19.0856L28.3099 28.1549L26.3589 28.1812Z" fill="#FFB400"/>
</svg>
