<svg width="21" height="44" viewBox="0 0 21 44" fill="none" xmlns="http://www.w3.org/2000/svg">
<path d="M14.0409 4.88644C12.1919 2.68534 10.5851 0.484242 10.277 0H10.2109C9.90279 0.462231 8.29598 2.68534 6.44706 4.88644C-9.40086 25.1146 8.95631 38.7614 8.95631 38.7614L9.11039 38.8714C9.24245 40.9625 9.59463 44 9.59463 44H10.9593C10.9593 44 11.2895 40.9845 11.4215 38.8714L11.5756 38.7394C11.5756 38.7394 29.8888 25.1146 14.0409 4.88644ZM10.2109 38.4532C9.82517 38.1363 9.47132 37.7825 9.15441 37.3967L10.2109 15.3857L11.2014 37.3967C10.9045 37.7786 10.5729 38.1323 10.2109 38.4532Z" fill="#997A7A"/>
</svg>
