<svg width="44" height="50" viewBox="0 0 44 50" fill="none" xmlns="http://www.w3.org/2000/svg">
<path d="M21.9963 49.5859C21.3134 49.5859 20.6752 49.4022 20.0792 49.0843L14.0227 45.4886C13.1163 44.9845 13.5707 44.8008 13.8439 44.7089C15.0756 44.2992 15.304 44.2098 16.5779 43.4847C16.717 43.3928 16.8982 43.435 17.0373 43.5269L21.6809 46.3081C21.8647 46.3975 22.0931 46.3975 22.2297 46.3081L40.4043 35.7867C40.5881 35.6973 40.6775 35.5136 40.6775 35.2851V14.2821C40.6775 14.0561 40.5881 13.8724 40.4043 13.783L22.2297 3.30632C22.0484 3.21444 21.82 3.21444 21.6809 3.30632L3.50133 13.7805C3.32005 13.8699 3.22817 14.1008 3.22817 14.2796V35.2801C3.22817 35.4614 3.32005 35.6924 3.50133 35.7817L8.46775 38.6548C11.1546 40.0156 12.8432 38.4189 12.8432 36.8297V16.1048C12.8432 15.8316 13.0691 15.556 13.3895 15.556H15.7138C15.9819 15.556 16.2601 15.7844 16.2601 16.1048V36.8321C16.2601 40.4303 14.3033 42.5286 10.8864 42.5286C9.83848 42.5286 9.01902 42.5286 6.69473 41.3864L1.91456 38.6573C1.33214 38.3187 0.848787 37.8332 0.512813 37.2493C0.176838 36.6654 9.56837e-06 36.0035 0 35.3298V14.3268C0 12.961 0.727581 11.6847 1.91456 11.0018L20.0817 0.480421C20.6715 0.165017 21.33 0 21.9988 0C22.6676 0 23.326 0.165017 23.9158 0.480421L42.0854 11.0018C43.2749 11.6822 44 12.961 44 14.3268V35.3298C44 36.6931 43.2724 37.9695 42.0854 38.6573L23.9158 49.1762C23.3173 49.4493 22.6345 49.5859 21.9963 49.5859ZM27.5984 35.1436C19.6273 35.1436 17.9884 31.4982 17.9884 28.4041C17.9884 28.131 18.2168 27.8553 18.5347 27.8553H20.9037C21.1768 27.8553 21.4028 28.0366 21.4028 28.3123C21.7678 30.7234 22.8132 31.9104 27.6456 31.9104C31.4697 31.9104 33.1136 31.0413 33.1136 28.9926C33.1136 27.8082 32.6542 26.944 26.6895 26.353C21.7256 25.8564 18.629 24.7563 18.629 20.7956C18.629 17.108 21.7256 14.9203 26.9205 14.9203C32.7486 14.9203 35.6192 16.9292 35.9817 21.2972C35.9774 21.4446 35.9289 21.5873 35.8427 21.7069C35.7508 21.7963 35.6167 21.8882 35.4801 21.8882H33.1136C32.9966 21.8857 32.8838 21.8443 32.793 21.7706C32.7021 21.6968 32.6385 21.5949 32.612 21.4809C32.0632 18.9679 30.6527 18.1534 26.9205 18.1534C22.7263 18.1534 22.2247 19.6111 22.2247 20.7037C22.2247 22.0223 22.8133 22.432 28.4675 23.1621C34.0696 23.8897 36.7118 24.9376 36.7118 28.8586C36.6621 32.8689 33.3868 35.1436 27.5984 35.1436Z" fill="#997A7A"/>
</svg>
