<svg width="29" height="29" viewBox="0 0 29 29" fill="none" xmlns="http://www.w3.org/2000/svg">
<rect width="29" height="29" rx="2" fill="#FFB400"/>
<path d="M2.42374 5.48783C2.30183 3.76076 3.76429 2.41666 5.4921 2.41666H9.19061C10.0775 2.41666 10.8775 2.95105 11.2186 3.77144L12.7652 7.491C13.1419 8.39708 12.8745 9.44365 12.1096 10.0568L11.1455 10.8297C10.7153 11.1746 10.569 11.7694 10.8241 12.2583C12.1351 14.7708 14.0727 16.9031 16.4289 18.4473C16.9263 18.7731 17.5833 18.6435 17.9543 18.1788L18.9589 16.9203C19.5708 16.1538 20.6152 15.8859 21.5194 16.2634L25.2313 17.8132C26.0501 18.1551 26.5833 18.9567 26.5833 19.8454V23.5625C26.5833 25.2939 25.1924 26.6987 23.4689 26.5762C12.4483 25.7921 3.20502 16.5562 2.42374 5.48783Z" fill="#111111"/>
</svg>
