<svg width="44" height="21" viewBox="0 0 44 21" fill="none" xmlns="http://www.w3.org/2000/svg">
<path d="M0.354692 20.9123H3.80355C3.87804 20.913 3.95028 20.8867 4.00684 20.8382C4.06341 20.7897 4.10045 20.7224 4.11109 20.6486L4.87994 16.6506H7.55994C8.68181 16.6787 9.80112 16.5304 10.877 16.2113C11.7487 15.923 12.5444 15.4425 13.2055 14.8054C13.7992 14.2716 14.297 13.6401 14.6773 12.9381C15.0535 12.2514 15.3203 11.5103 15.4681 10.7414C15.7015 9.9354 15.7416 9.0857 15.5851 8.26128C15.4286 7.43686 15.08 6.66095 14.5675 5.9965C13.9737 5.3931 13.2549 4.92703 12.4618 4.63102C11.6686 4.33501 10.8203 4.21624 9.97634 4.28306H3.38617C3.30712 4.28662 3.23158 4.31675 3.17178 4.36858C3.11198 4.4204 3.07142 4.49089 3.05666 4.56863L0.0251839 20.5168C-0.00839462 20.6091 -0.00839462 20.7102 0.0251839 20.8024C0.0671012 20.846 0.118992 20.8788 0.176392 20.898C0.233791 20.9171 0.29498 20.922 0.354692 20.9123ZM6.61535 7.38044H8.81207C9.23001 7.3243 9.65493 7.3517 10.0622 7.46106C10.4694 7.57041 10.8509 7.75955 11.1845 8.01749C11.558 8.4129 11.6239 9.15979 11.4262 10.2142C11.316 11.1575 10.8719 12.0303 10.174 12.6745C9.30402 13.2254 8.27902 13.4797 7.2524 13.3995H5.49502L6.61535 7.38044ZM28.1432 5.29355C26.954 4.41923 25.4815 4.01977 24.0134 4.17322H21.3993L22.1242 0.306993C22.1456 0.262441 22.1568 0.21364 22.1568 0.164206C22.1568 0.114771 22.1456 0.0659704 22.1242 0.0214185C22.0462 -0.0071395 21.9606 -0.0071395 21.8826 0.0214185H18.4337C18.3592 0.020655 18.287 0.0469578 18.2304 0.0954407C18.1739 0.143924 18.1368 0.21129 18.1262 0.285025L15.0947 16.2552C15.0735 16.2959 15.0625 16.3411 15.0625 16.387C15.0625 16.4329 15.0735 16.4781 15.0947 16.5188C15.1206 16.5594 15.1563 16.5927 15.1986 16.6157C15.2408 16.6388 15.2882 16.6508 15.3363 16.6506H18.7193C18.7972 16.6508 18.8723 16.6214 18.9293 16.5684C18.9864 16.5154 19.0213 16.4427 19.0268 16.365L20.7183 7.42437H23.1567C24.1452 7.42437 24.4967 7.64405 24.6065 7.77585C24.6959 7.99175 24.742 8.22314 24.742 8.45683C24.742 8.69052 24.6959 8.92192 24.6065 9.13782L23.2665 16.2552C23.2453 16.2959 23.2343 16.3411 23.2343 16.387C23.2343 16.4329 23.2453 16.4781 23.2665 16.5188C23.2938 16.558 23.3298 16.5904 23.3718 16.6133C23.4137 16.6361 23.4604 16.6489 23.5081 16.6506H26.935C27.0141 16.6471 27.0896 16.6169 27.1494 16.5651C27.2092 16.5133 27.2498 16.4428 27.2645 16.365L28.6704 8.89618C28.8973 8.30059 28.9679 7.65687 28.8756 7.02626C28.7834 6.39566 28.5312 5.79916 28.1432 5.29355ZM38.0724 4.17322H31.1967C31.1563 4.17023 31.1157 4.17526 31.0772 4.18801C31.0387 4.20076 31.0032 4.22098 30.9726 4.24752C30.9419 4.27406 30.9169 4.30639 30.8988 4.34264C30.8807 4.3789 30.87 4.41838 30.8672 4.4588L27.66 20.5168C27.64 20.5618 27.6296 20.6104 27.6296 20.6596C27.6296 20.7088 27.64 20.7575 27.66 20.8024C27.6895 20.8376 27.7265 20.8657 27.7683 20.8847C27.8101 20.9038 27.8557 20.9132 27.9016 20.9123H31.4823C31.5604 20.9186 31.6381 20.8949 31.6993 20.8459C31.7606 20.7969 31.8008 20.7263 31.8118 20.6486L32.6245 16.6506H35.4144C36.5722 16.6761 37.7273 16.528 38.8413 16.2113C39.8004 15.9444 40.6867 15.4638 41.4334 14.8054C42.0466 14.2732 42.5664 13.642 42.9711 12.9381C43.3542 12.2525 43.6284 11.5114 43.7839 10.7414C44.0233 9.93466 44.0645 9.08202 43.9039 8.25594C43.7433 7.42986 43.3856 6.65476 42.8613 5.9965C42.2402 5.36739 41.4912 4.87903 40.665 4.56447C39.8388 4.24991 38.9547 4.11649 38.0724 4.17322ZM39.4344 10.2581C39.303 11.2094 38.8354 12.0821 38.1164 12.7185C37.2149 13.2718 36.1614 13.5256 35.1068 13.4434H33.3495L34.5357 7.38044H36.7324C37.6105 7.27282 38.497 7.5003 39.2147 8.01749C39.5662 8.4129 39.5662 9.15979 39.4344 10.2581Z" fill="#997A7A"/>
</svg>
