<svg width="44" height="40" viewBox="0 0 44 40" fill="none" xmlns="http://www.w3.org/2000/svg">
<path d="M22.0011 23.4982C24.1679 23.4982 25.9244 21.7416 25.9244 19.5749C25.9244 17.4081 24.1679 15.6516 22.0011 15.6516C19.8343 15.6516 18.0778 17.4081 18.0778 19.5749C18.0778 21.7416 19.8343 23.4982 22.0011 23.4982Z" fill="#997A7A"/>
<path d="M11.0159 27.3753L10.1478 27.1533C3.69908 25.5247 0 22.7553 0 19.5661C0 16.3748 3.70128 13.6076 10.1478 11.9789L11.0159 11.7592L11.2599 12.6185C11.9117 14.8685 12.7467 17.0613 13.7567 19.1749L13.9436 19.5661L13.7567 19.9574C12.7457 22.074 11.9083 24.2675 11.2599 26.5181L11.0159 27.3753ZM9.74774 13.979C4.84859 15.3593 1.83965 17.4649 1.83965 19.5661C1.83965 21.6629 4.8464 23.7707 9.74774 25.1488C10.3478 23.241 11.0731 21.375 11.9127 19.5661C11.067 17.7542 10.3437 15.8877 9.74774 13.979ZM32.9841 27.3753L32.7423 26.5137C32.0888 24.2633 31.253 22.0699 30.2433 19.9552L30.0564 19.5661L30.2433 19.1727C31.2543 17.0605 32.0873 14.8648 32.7423 12.6141L32.9841 11.757L33.8522 11.9767C40.3031 13.6054 44 16.3726 44 19.5661C44 22.7575 40.3009 25.5247 33.8522 27.1533L32.9841 27.3753ZM32.0829 19.5661C32.9621 21.4695 33.694 23.3422 34.2523 25.1488C39.1536 23.7707 42.1625 21.6629 42.1625 19.5661C42.1625 17.4649 39.1558 15.3615 34.2523 13.979C33.6528 15.8871 32.9282 17.7535 32.0829 19.5661Z" fill="#997A7A"/>
<path d="M9.73456 13.9702L9.49279 13.113C7.67731 6.7215 8.22679 2.14325 11.0028 0.547569C13.7172 -1.02394 18.0844 0.833298 22.6583 5.52584L23.2825 6.16763L22.6583 6.80722C21.0337 8.49673 19.549 10.3152 18.2185 12.2449L17.9701 12.6009L17.5393 12.6361C15.1999 12.8198 12.8792 13.194 10.6005 13.7548L9.73456 13.9702ZM13.2117 1.81796C12.7193 1.81796 12.2841 1.92566 11.9171 2.13666C10.0972 3.18506 9.77632 6.83579 11.0291 11.7635C12.9875 11.3305 14.9634 11.0206 16.9547 10.847C18.1075 9.21186 19.3652 7.6532 20.7197 6.18082C17.8558 3.39606 15.1524 1.81796 13.2117 1.81796ZM30.7884 39.1473C28.1772 39.1473 24.8232 37.178 21.3417 33.6042L20.7197 32.9646L21.3417 32.3272C22.9665 30.635 24.452 28.8143 25.7837 26.8829L26.0299 26.5313L26.4563 26.4895C28.7966 26.309 31.1181 25.9363 33.3973 25.3752L34.2655 25.1554L34.5094 26.0148C36.3161 32.4019 35.7688 36.9868 32.9973 38.5824C32.3243 38.9639 31.5618 39.1589 30.7884 39.1473ZM23.2825 32.9492C26.1442 35.7339 28.8498 37.3142 30.7884 37.3142C31.2829 37.3142 31.7181 37.2043 32.0829 36.9955C33.905 35.9449 34.2281 32.2876 32.9709 27.3599C31.0147 27.7951 29.0366 28.1072 27.0409 28.2808C25.893 29.9185 24.6374 31.4781 23.2825 32.9492Z" fill="#997A7A"/>
<path d="M34.2655 13.9703L33.3973 13.7527C31.1182 13.1901 28.7967 12.8159 26.4563 12.6339L26.0299 12.5966L25.7837 12.2405C24.4539 10.3098 22.9683 8.49121 21.3417 6.80287L20.7197 6.16327L21.3417 5.52588C25.9134 0.835535 30.2785 -1.0217 32.9973 0.547608C35.771 2.14549 36.3227 6.72374 34.5094 13.1131L34.2655 13.9703ZM27.0409 10.847C29.1377 11.0338 31.1246 11.3481 32.9709 11.7636C34.2259 6.83583 33.905 3.1851 32.0829 2.1345C30.2719 1.0861 26.8629 2.69057 23.2825 6.18086C24.6364 7.65346 25.8936 9.20958 27.0409 10.847ZM13.2117 39.1473C12.4383 39.1584 11.6759 38.9634 11.0028 38.5825C8.22681 36.9868 7.67733 32.4041 9.49061 26.0148L9.72798 25.1554L10.5962 25.3752C12.7149 25.9093 15.0491 26.2852 17.5372 26.4896L17.9636 26.5313L18.2119 26.883C19.5395 28.8128 21.0252 30.6348 22.6517 32.3272L23.2759 32.9646L22.6517 33.6042C19.1724 37.1802 15.8184 39.1473 13.2117 39.1473ZM11.0291 27.3621C9.77633 32.2899 10.0972 35.9472 11.9171 36.9978C13.7304 38.0308 17.1283 36.4373 20.7197 32.9492C19.3657 31.4764 18.1081 29.9178 16.9547 28.2831C14.9614 28.1068 12.9819 27.7991 11.0291 27.3621Z" fill="#997A7A"/>
<path d="M22.0011 28.5161C20.4912 28.5161 18.9416 28.4523 17.3855 28.3227L16.9547 28.2853L16.7064 27.9292C15.8289 26.6674 15.0032 25.3703 14.2315 24.0411C13.4655 22.7084 12.7536 21.3453 12.0973 19.9552L11.9127 19.5662L12.0973 19.1727C12.7545 17.7837 13.4644 16.421 14.2315 15.089C14.9942 13.7791 15.8272 12.4691 16.7064 11.1987L16.9547 10.8471L17.3855 10.8075C20.4558 10.5503 23.5421 10.5503 26.6124 10.8075L27.0387 10.8493L27.2871 11.2009C29.045 13.7258 30.5889 16.3931 31.9027 19.1749L32.0852 19.5684L31.9027 19.9574C30.5925 22.7412 29.0485 25.4088 27.2871 27.9314L27.0387 28.2875L26.6124 28.3249C25.0606 28.4501 23.5089 28.5161 22.0011 28.5161ZM17.9702 26.5292C20.6846 26.7336 23.3177 26.7336 26.0299 26.5292C27.544 24.3119 28.89 21.9844 30.0565 19.5662C28.8941 17.1457 27.548 14.8179 26.0299 12.6032C23.3473 12.3966 20.6528 12.3966 17.9702 12.6032C16.4508 14.8171 15.1046 17.145 13.9436 19.5662C15.1126 21.9831 16.4585 24.3104 17.9702 26.5292Z" fill="#997A7A"/>
</svg>
