<svg width="15" height="14" viewBox="0 0 15 14" fill="none" xmlns="http://www.w3.org/2000/svg">
<path d="M4.03141 10.4988L4.96887 9.32731L1.95101 6.91318L4.96887 4.49904L4.03141 3.32759L0.281589 6.32745C0.193727 6.39771 0.122797 6.48684 0.0740532 6.58823C0.0253093 6.68962 0 6.80068 0 6.91318C0 7.02568 0.0253093 7.13673 0.0740532 7.23812C0.122797 7.33951 0.193727 7.42864 0.281589 7.4989L4.03141 10.4988ZM10.9686 3.32759L10.0311 4.49904L13.049 6.91318L10.0311 9.32731L10.9686 10.4988L14.7184 7.4989C14.8063 7.42864 14.8772 7.33951 14.9259 7.23812C14.9747 7.13673 15 7.02568 15 6.91318C15 6.80068 14.9747 6.68962 14.9259 6.58823C14.8772 6.48684 14.8063 6.39771 14.7184 6.32745L10.9686 3.32759ZM9.7319 0.325485L6.73204 13.8249L5.26735 13.4994L8.26721 0L9.7319 0.325485Z" fill="white"/>
</svg>
