<svg viewBox="0 0 22 17" fill="none" xmlns="http://www.w3.org/2000/svg">
<path d="M18.0848 7.17224L10.9534 11.425L3.95885 7.17224L3.37725 10.8038C3.3798 10.7986 3.38492 10.7948 3.39131 10.7871C3.30822 10.9265 3.26093 11.0709 3.26093 11.2179C3.26093 12.5 8.90824 16.4511 10.7016 16.4511C12.4963 16.4511 18.784 12.5 18.784 11.2179C18.784 11.0786 18.738 10.9444 18.6664 10.5379L18.0848 7.17224Z" fill="white"/>
<path d="M22 3.45512L11.0377 0L1.2463 3.12277C1.10824 3.1445 0.977863 3.18029 0.874325 3.24165C0.749056 3.31579 0.663413 3.42316 0.657022 3.58166C0.604613 4.21568 0 11.5043 0 11.5043L0.657022 13.6875L1.26675 11.5043L1.00854 3.99326L11.0083 10.1455L22 3.45512ZM10.2452 3.76829H1.00087L1.96723 3.24037H10.1289C10.235 3.05502 10.4855 2.92464 10.7769 2.92464C11.1655 2.92464 11.48 3.156 11.48 3.43978C11.48 3.72483 11.1655 3.95619 10.7769 3.95619C10.5596 3.95875 10.373 3.88205 10.2452 3.76829Z" fill="white"/>
</svg>
