<svg width="44" height="44" viewBox="0 0 44 44" fill="none" xmlns="http://www.w3.org/2000/svg">
<path d="M39.6978 0H4.30222C3.1612 0 2.06691 0.453268 1.26009 1.26009C0.453268 2.06691 0 3.1612 0 4.30222V39.6978C0 40.8388 0.453268 41.9331 1.26009 42.7399C2.06691 43.5467 3.1612 44 4.30222 44H39.6978C40.2628 44 40.8222 43.8887 41.3442 43.6725C41.8661 43.4563 42.3404 43.1394 42.7399 42.7399C43.1394 42.3404 43.4563 41.8661 43.6725 41.3442C43.8887 40.8222 44 40.2628 44 39.6978V4.30222C44 3.73725 43.8887 3.1778 43.6725 2.65583C43.4563 2.13386 43.1394 1.65959 42.7399 1.26009C42.3404 0.860593 41.8661 0.543694 41.3442 0.327487C40.8222 0.11128 40.2628 0 39.6978 0ZM25.52 24.4444H20.02V40.1867H15.6444V24.4444H10.1444V20.8756H25.52V24.4444ZM39.6978 37.3511C39.3439 38.1035 38.7737 38.7334 38.06 39.16C37.3091 39.6221 36.4811 39.9451 35.6156 40.1133C34.6506 40.3126 33.6675 40.4109 32.6822 40.4067C31.674 40.4058 30.6679 40.3158 29.6756 40.1378C28.8321 39.965 28.0117 39.6943 27.2311 39.3311V35.1511L27.0844 35.0044H27.2311V35.1756C27.9664 35.7492 28.7926 36.1954 29.6756 36.4956C30.5572 36.8313 31.4944 36.9971 32.4378 36.9844C32.9307 36.993 33.423 36.9438 33.9044 36.8378C34.2661 36.7532 34.6124 36.613 34.9311 36.4222C35.1806 36.2701 35.3901 36.0606 35.5422 35.8111C35.6927 35.527 35.7589 35.2057 35.7329 34.8853C35.7069 34.5648 35.5899 34.2584 35.3956 34.0022C35.1658 33.6801 34.8751 33.406 34.54 33.1956C34.1331 32.9094 33.6992 32.6638 33.2444 32.4622L31.6067 31.7778C30.3102 31.2438 29.1615 30.4053 28.2578 29.3333C27.5015 28.4216 27.1019 27.2664 27.1333 26.0822C27.1049 25.1826 27.3068 24.2907 27.72 23.4911C28.1143 22.7941 28.667 22.1996 29.3333 21.7556C30.0758 21.2616 30.9053 20.9132 31.7778 20.7289C32.7316 20.5094 33.7079 20.4027 34.6867 20.4111C35.5779 20.3987 36.4688 20.4559 37.3511 20.5822C38.0852 20.697 38.8059 20.8853 39.5022 21.1444V25.1778C39.1805 24.9484 38.8365 24.7519 38.4756 24.5911C38.0869 24.4238 37.6866 24.2849 37.2778 24.1756C36.886 24.0609 36.4854 23.9791 36.08 23.9311C35.706 23.8958 35.3295 23.8958 34.9556 23.9311C34.495 23.9235 34.0352 23.9728 33.5867 24.0778C33.2187 24.1549 32.8644 24.2868 32.5356 24.4689C32.2789 24.6201 32.0612 24.8294 31.9 25.08C31.7537 25.3235 31.6775 25.6026 31.68 25.8867C31.674 26.1899 31.7592 26.4879 31.9244 26.7422C32.1252 27.0199 32.3735 27.2598 32.6578 27.4511C33.0024 27.7255 33.3802 27.9554 33.7822 28.1356L35.3222 28.82C36.0303 29.1127 36.7165 29.4558 37.3756 29.8467C37.9551 30.1638 38.4826 30.5677 38.94 31.0444C39.3881 31.4787 39.7382 32.0038 39.9667 32.5844C40.2011 33.2518 40.3169 33.955 40.3089 34.6622C40.2914 35.5752 40.0832 36.4744 39.6978 37.3022V37.3511Z" fill="#997A7A"/>
</svg>
