<svg width="44" height="27" viewBox="0 0 44 27" fill="none" xmlns="http://www.w3.org/2000/svg">
<path d="M36.3 7.74796C34.6501 7.17972 33.1938 6.158 32.098 4.79996C30.8903 3.28687 29.3525 2.07006 27.6023 1.24261C25.8521 0.415162 23.9358 -0.00100061 22 0.0259592C19.396 -0.158455 16.8181 0.644698 14.7796 2.27548C12.7411 3.90625 11.3917 6.245 11 8.82596C11.7715 7.5351 12.9326 6.52227 14.3163 5.93322C15.6999 5.34417 17.2348 5.20928 18.7 5.54796C20.3471 6.13274 21.8011 7.16041 22.902 8.51796C24.1163 10.019 25.657 11.2232 27.4069 12.039C29.1567 12.8549 31.0696 13.2608 33 13.226C35.604 13.4104 38.1819 12.6072 40.2204 10.9764C42.2589 9.34567 43.6083 7.00692 44 4.42596C43.2425 5.73226 42.0851 6.76039 40.6986 7.35856C39.3121 7.95674 37.77 8.09326 36.3 7.74796ZM7.7 18.704C9.34988 19.2722 10.8062 20.2939 11.902 21.652C13.1097 23.1651 14.6475 24.3819 16.3977 25.2093C18.1479 26.0368 20.0642 26.4529 22 26.426C24.604 26.6104 27.1819 25.8072 29.2204 24.1764C31.2589 22.5457 32.6083 20.2069 33 17.626C32.2285 18.9168 31.0674 19.9297 29.6837 20.5187C28.3001 21.1077 26.7652 21.2426 25.3 20.904C23.6529 20.3192 22.1989 19.2915 21.098 17.934C19.8804 16.4367 18.3391 15.2351 16.59 14.4196C14.8409 13.6041 12.9296 13.196 11 13.226C8.39601 13.0415 5.81808 13.8447 3.77961 15.4755C1.74114 17.1063 0.391693 19.445 0 22.026C0.757475 20.7197 1.9149 19.6915 3.30139 19.0934C4.68789 18.4952 6.22998 18.3587 7.7 18.704Z" fill="#997A7A"/>
</svg>
